<svg width="40" height="40" viewBox="0 0 40 40" fill="none" xmlns="http://www.w3.org/2000/svg">
<path d="M29.1666 10.8333H29.1833M11.6666 3.33325H28.3333C32.9356 3.33325 36.6666 7.06421 36.6666 11.6666V28.3333C36.6666 32.9356 32.9356 36.6666 28.3333 36.6666H11.6666C7.06421 36.6666 3.33325 32.9356 3.33325 28.3333V11.6666C3.33325 7.06421 7.06421 3.33325 11.6666 3.33325ZM26.6666 18.9499C26.8723 20.337 26.6353 21.7536 25.9895 22.9983C25.3437 24.2429 24.3218 25.2523 23.0693 25.8827C21.8168 26.5131 20.3973 26.7326 19.0129 26.5098C17.6285 26.287 16.3495 25.6334 15.358 24.6419C14.3664 23.6503 13.7128 22.3714 13.49 20.9869C13.2673 19.6025 13.4867 18.1831 14.1171 16.9305C14.7476 15.678 15.7569 14.6562 17.0016 14.0103C18.2462 13.3645 19.6628 13.1276 21.0499 13.3333C22.4648 13.5431 23.7747 14.2024 24.7861 15.2138C25.7975 16.2252 26.4568 17.535 26.6666 18.9499Z" stroke="#D9D9D9" stroke-width="3.5" stroke-linecap="round" stroke-linejoin="round"/>
</svg>
