<svg width="40" height="40" viewBox="0 0 40 40" fill="none" xmlns="http://www.w3.org/2000/svg">
<path d="M36.6666 19.9999C36.6666 29.2047 29.2047 36.6666 19.9999 36.6666M36.6666 19.9999C36.6666 10.7952 29.2047 3.33325 19.9999 3.33325M36.6666 19.9999H3.33325M19.9999 36.6666C10.7952 36.6666 3.33325 29.2047 3.33325 19.9999M19.9999 36.6666C24.1687 32.1027 26.5378 26.1799 26.6666 19.9999C26.5378 13.82 24.1687 7.89717 19.9999 3.33325M19.9999 36.6666C15.8311 32.1027 13.462 26.1799 13.3333 19.9999C13.462 13.82 15.8311 7.89717 19.9999 3.33325M3.33325 19.9999C3.33325 10.7952 10.7952 3.33325 19.9999 3.33325" stroke="#D9D9D9" stroke-width="3.5" stroke-linecap="round" stroke-linejoin="round"/>
</svg>
